<svg height="512pt" viewBox="0 -105 512 512" width="512pt" xmlns="http://www.w3.org/2000/svg"><path fill="#0A0571" d="m301.714844 100.570312h54.855468v118.859376h-54.855468zm0 0"/><path fill="#0A0571" d="m301.714844 237.714844h54.855468v18.285156h-54.855468zm0 0"/><path fill="#0A0571" d="m438.855469 228.570312c-20.195313 0-36.570313 16.375-36.570313 36.574219 0 20.195313 16.375 36.570313 36.570313 36.570313 20.199219 0 36.574219-16.375 36.574219-36.570313 0-20.199219-16.375-36.574219-36.574219-36.574219zm0 54.859376c-10.097657 0-18.285157-8.1875-18.285157-18.285157 0-10.101562 8.1875-18.289062 18.285157-18.289062 10.101562 0 18.289062 8.1875 18.289062 18.289062 0 10.097657-8.1875 18.285157-18.289062 18.285157zm0 0"/><path fill="#0A0571" d="m164.570312 192h118.859376v64h-118.859376zm0 0"/><path fill="#0A0571" d="m329.144531 54.855469c-15.148437 0-27.429687 12.28125-27.429687 27.429687h54.855468c0-15.148437-12.277343-27.429687-27.425781-27.429687zm0 0"/><path fill="#0A0571" d="m73.144531 228.570312c-20.199219 0-36.574219 16.375-36.574219 36.574219 0 20.195313 16.375 36.570313 36.574219 36.570313 20.195313 0 36.570313-16.375 36.570313-36.570313 0-20.199219-16.375-36.574219-36.570313-36.574219zm0 54.859376c-10.101562 0-18.289062-8.1875-18.289062-18.285157 0-10.101562 8.1875-18.289062 18.289062-18.289062 10.097657 0 18.285157 8.1875 18.285157 18.289062 0 10.097657-8.1875 18.285157-18.285157 18.285157zm0 0"/><path fill="#0A0571" d="m118.855469 146.285156c0 5.050782-4.089844 9.144532-9.140625 9.144532h-80.128906l-24.53125 12.269531c-2.398438 1.199219-4.136719 3.402343-4.753907 6.015625h145.984375v-91.429688h-27.429687zm0 0"/><path fill="#0A0571" d="m0 32c0 17.671875 14.328125 32 32 32h114.285156v-64h-114.285156c-17.671875 0-32 14.328125-32 32zm0 0"/><path fill="#0A0571" d="m52.855469 82.285156-13.714844 54.859375h61.429687v-54.859375zm0 0"/><path fill="#0A0571" d="m0 246.855469c0 5.050781 4.09375 9.144531 9.144531 9.144531h9.964844c5.019531-29.84375 33.277344-49.964844 63.121094-44.945312 23.027343 3.871093 41.074219 21.914062 44.945312 44.945312h19.109375v-64h-146.285156zm0 0"/><path fill="#0A0571" d="m429.714844 82.285156h45.714844v45.714844h-45.714844zm0 0"/><path fill="#0A0571" d="m484.570312 0h-320v173.714844h118.859376v-91.429688c0-25.246094 20.464843-45.714844 45.714843-45.714844 25.246094 0 45.710938 20.46875 45.710938 45.714844v91.429688h137.144531v-146.285156c0-15.148438-12.28125-27.429688-27.429688-27.429688zm-256 27.429688h18.285157v18.285156h-18.285157zm-36.570312 0h18.285156v18.285156h-18.285156zm73.144531 109.714843c0 5.046875-4.09375 9.140625-9.144531 9.140625h-64c-5.050781 0-9.144531-4.09375-9.144531-9.140625v-64c0-5.050781 4.09375-9.144531 9.144531-9.144531h64c5.050781 0 9.140625 4.09375 9.140625 9.144531v64zm173.710938-109.714843h18.289062v18.285156h-18.289062zm54.859375 109.714843c0 5.046875-4.09375 9.140625-9.144532 9.140625h-64c-5.046874 0-9.140624-4.09375-9.140624-9.140625v-64c0-5.050781 4.09375-9.144531 9.140624-9.144531h64c5.050782 0 9.144532 4.09375 9.144532 9.144531zm0-91.429687h-18.285156v-18.285156h18.285156zm0 0"/><path fill="#0A0571" d="m201.144531 82.285156h45.710938v45.714844h-45.710938zm0 0"/><path fill="#0A0571" d="m374.855469 256h9.96875c5.019531-29.84375 33.277343-49.964844 63.121093-44.945312 23.027344 3.871093 41.074219 21.914062 44.945313 44.945312h9.964844c5.050781 0 9.144531-4.09375 9.144531-9.140625v-54.859375h-137.144531zm0 0"/></svg>