<?xml version="1.0" encoding="iso-8859-1"?>
<!-- Generator: Adobe Illustrator 19.0.0, SVG Export Plug-In . SVG Version: 6.00 Build 0)  -->
<svg version="1.1" id="Capa_1" xmlns="http://www.w3.org/2000/svg" xmlns:xlink="http://www.w3.org/1999/xlink" x="0px" y="0px"
	 viewBox="0 0 512.001 512.001" style="enable-background:new 0 0 512.001 512.001;" xml:space="preserve">
<g>
	<polygon style="fill:#A0EBFF;" points="254.823,245.835 467.664,245.835 450.098,165.428 303.526,165.428 	"/>
	<polygon style="fill:#A0EBFF;" points="262.141,242.865 467.389,242.865 450.451,165.325 309.106,165.325 	"/>
</g>
<polygon style="fill:#6EE1FF;" points="296.366,178.047 303.526,166.226 450.098,166.226 452.681,178.047 "/>
<g>
	<polygon style="opacity:0.5;fill:#FFFFFF;enable-background:new    ;" points="399.94,166.862 439.245,244.402 458.751,244.402 
		419.447,166.862 	"/>
	<polygon style="opacity:0.5;fill:#FFFFFF;enable-background:new    ;" points="364.636,244.402 384.142,244.402 344.838,166.862 
		325.331,166.862 	"/>
	<polygon style="opacity:0.61;fill:#FFFFFF;enable-background:new    ;" points="348.575,244.402 358.328,244.402 319.024,166.862 
		309.27,166.862 	"/>
</g>
<path style="fill:#50555A;" d="M465.205,347.256h44.135c1.47,0,2.661-1.191,2.661-2.661v-13.486c0-1.47-1.191-2.661-2.661-2.661
	h-44.135V347.256z"/>
<path style="fill:#2896FF;" d="M157.076,345.87c0.334,0.095,13.286,1.435,13.286,1.435h292.801c0,0,24.399-0.575,25.018-0.615
	v-90.322l-20.517-90.94c-1.968-8.943-10.042-15.433-19.197-15.433H308.268c-7.107,0-13.678,3.852-17.149,10.051l-37.761,67.83
	h-57.73c-21.292,0-38.55,17.265-38.55,38.556C157.076,293.036,157.076,339.503,157.076,345.87z M309.582,171.893h71.201v65.696
	h-97.075v-0.133h-10.841L309.582,171.893z M461.118,237.59h-58.436v-65.696h43.982L461.118,237.59z"/>
<path style="fill:#1E87DC;" d="M141.92,324.571c0,12.556,10.178,22.735,22.735,22.735h324.547c5.127,0,9.283-4.156,9.283-9.283
	V311.12c0-5.127-4.156-9.283-9.283-9.283H164.654C152.098,301.836,141.92,312.014,141.92,324.571z"/>
<path style="fill:#1E73BE;" d="M342.552,266.847h23.467c4.411,0,7.986-3.576,7.986-7.986c0-4.41-3.575-7.986-7.986-7.986h-23.467
	c-4.411,0-7.986,3.576-7.986,7.986C334.566,263.273,338.141,266.847,342.552,266.847z"/>
<path style="fill:#1E87DC;" d="M173.56,268.548c8.124,0,14.711,6.586,14.711,14.711s-6.586,14.711-14.711,14.711h-16.484
	c0-5.745,0-23.14,0-29.421L173.56,268.548L173.56,268.548z"/>
<path style="fill:#FAC855;" d="M157.239,262.96h16.321c8.124,0,14.711,6.586,14.711,14.711c0,8.124-6.586,14.711-14.711,14.711
	h-16.484c0-5.374,0-20.707,0-25.948C157.076,265.261,157.137,264.104,157.239,262.96z"/>
<path style="fill:#FF640A;" d="M475.842,301.836h12.338v-34.989h-12.338c-2.372,0-4.295,1.922-4.295,4.295v26.399
	C471.547,299.913,473.471,301.836,475.842,301.836z"/>
<path style="fill:#1E73BE;" d="M278.729,347.305h-95.408l0,0c0-26.91,21.815-48.725,48.725-48.725
	c26.894,0,48.698,21.789,48.724,48.677C279.506,347.286,278.729,347.305,278.729,347.305z"/>
<circle style="fill:#373C41;" cx="232.05" cy="347.31" r="37.648"/>
<circle style="fill:#696E73;" cx="232.05" cy="347.31" r="15.25"/>
<path style="fill:#82878C;" d="M232.047,332.055v30.499c-8.422,0-15.25-6.828-15.25-15.25
	C216.797,338.882,223.625,332.055,232.047,332.055z"/>
<g>
	<rect x="380.781" y="171.895" style="fill:#1E87DC;" width="21.898" height="5.929"/>
	<rect x="276.273" y="237.587" style="fill:#1E87DC;" width="184.85" height="6.443"/>
</g>
<path style="fill:#1E73BE;" d="M276.27,244.033h16.168v-32.335H276.27c-8.93,0-16.168,7.239-16.168,16.168l0,0
	C260.102,236.795,267.34,244.033,276.27,244.033z"/>
<g>
	<path style="fill:#1E87DC;" d="M163.692,244.821c6.932-10.23,18.647-16.956,31.935-16.956h57.73
		c-6.448,10.533-17.909,16.956-30.26,16.956H163.692z"/>
	<rect x="389.154" y="240.816" style="fill:#1E87DC;" width="6.283" height="66.15"/>
</g>
<path style="fill:#1E73BE;" d="M463.162,347.305h-95.408l0,0c0-26.91,21.815-48.725,48.725-48.725
	c26.894,0,48.698,21.789,48.724,48.677C463.939,347.286,463.162,347.305,463.162,347.305z"/>
<circle style="fill:#373C41;" cx="416.479" cy="347.31" r="37.648"/>
<circle style="fill:#696E73;" cx="416.479" cy="347.31" r="15.25"/>
<path style="fill:#82878C;" d="M416.48,332.055v30.499c-8.422,0-15.25-6.828-15.25-15.25
	C401.23,338.882,408.058,332.055,416.48,332.055z"/>
<path style="fill:#696E73;" d="M315.146,140.239h127.746c2.352,0,4.258-1.906,4.258-4.258l0,0c0-2.351-1.906-4.258-4.258-4.258
	H315.146c-2.352,0-4.258,1.906-4.258,4.258l0,0C310.887,138.333,312.793,140.239,315.146,140.239z"/>
<g>
	<path style="fill:#82878C;" d="M423.025,149.995h9.321v-20.797c0-2.574-2.087-4.661-4.661-4.661s-4.661,2.087-4.661,4.661v20.797
		H423.025z"/>
	<path style="fill:#82878C;" d="M325.692,149.995h9.321v-20.797c0-2.574-2.087-4.661-4.661-4.661s-4.661,2.087-4.661,4.661v20.797
		H325.692z"/>
</g>
<path style="fill:#1B224A;" d="M115.058,245.906c-5.326,0-10.501-2.777-13.333-7.73c-4.205-7.356-1.651-16.728,5.706-20.933
	l111.672-63.834c7.355-4.206,16.728-1.651,20.933,5.706s1.651,16.728-5.706,20.933l-111.672,63.834
	C120.256,245.253,117.639,245.906,115.058,245.906z"/>
<path style="fill:#FFB69E;" d="M107.43,217.242c-7.356,4.205-9.91,13.576-5.706,20.933c2.832,4.955,8.008,7.73,13.333,7.73
	c2.581,0,5.198-0.652,7.599-2.026L107.43,217.242z"/>
<polygon style="fill:#FFFFFF;" points="113.83,213.524 107.365,217.242 122.655,243.878 129.502,239.966 "/>
<path style="fill:#5F6E9B;" d="M224.641,273.539v144.403c0.027,10.15,7.804,18.358,17.38,18.358h0.05
	c9.599-0.029,17.359-8.295,17.332-18.462V273.539H224.641z"/>
<path style="fill:#414B82;" d="M182.693,273.539l-0.01,144.348c-0.001,10.167,7.78,18.411,17.38,18.411c0.001,0,0.001,0,0.001,0
	c9.599,0,17.381-8.242,17.382-18.409l0.01-144.351h-34.763V273.539z"/>
<path style="fill:#252D5C;" d="M182.683,281.782h76.72V171.58c0-11.863-9.079-21.479-20.279-21.479h-36.163
	c-11.2,0-20.279,9.617-20.279,21.479L182.683,281.782L182.683,281.782z"/>
<path style="fill:#414B82;" d="M41.78,273.067l0.01,144.824c0.001,10.167,7.752,18.41,17.313,18.409
	c9.561-0.001,17.311-8.244,17.311-18.411l-0.01-144.821L41.78,273.067L41.78,273.067z"/>
<path style="fill:#5F6E9B;" d="M0,273.067v144.77c-0.027,10.167,7.701,18.434,17.263,18.462h0.05
	c9.538,0,17.284-8.209,17.311-18.358V273.067H0z"/>
<path style="fill:#CD2D23;" d="M76.414,281.782H0V171.58C0,159.717,9.043,150.1,20.198,150.1h36.018
	c11.155,0,20.198,9.617,20.198,21.479C76.414,171.58,76.414,281.782,76.414,281.782z"/>
<circle style="fill:#BA6746;" cx="37.74" cy="107.498" r="31.796"/>
<circle style="fill:#FFB69E;" cx="218.232" cy="107.498" r="31.796"/>
<path style="fill:#292D30;" d="M251.608,333.306h-36.884c-4.323,0-7.827-3.504-7.827-7.827v-36.884c0-4.323,3.504-7.827,7.827-7.827
	h36.884c4.323,0,7.827,3.504,7.827,7.827v36.884C259.435,329.801,255.931,333.306,251.608,333.306z M222.551,317.652h21.23v-21.23
	h-21.23V317.652z"/>
<path style="fill:#80391B;" d="M283.65,372.85c0,4.492-3.642,8.134-8.134,8.134h-84.699c-4.492,0-8.134-3.642-8.134-8.134v-53.391
	c0-4.492,3.642-8.134,8.134-8.134h84.699c4.492,0,8.134,3.642,8.134,8.134V372.85z"/>
<path style="fill:#1B224A;" d="M230.384,301.008c-8.366-1.344-14.059-9.214-12.715-17.581l8.255-51.402l-21.21-59.89
	c-2.829-7.987,1.354-16.754,9.34-19.583c7.985-2.829,16.755,1.353,19.583,9.34l22.516,63.579c0.857,2.421,1.093,5.018,0.686,7.554
	l-8.876,55.267C246.625,296.63,238.779,302.353,230.384,301.008z"/>
<path style="fill:#FFB69E;" d="M217.669,283.427c-1.344,8.366,4.349,16.237,12.715,17.581c8.396,1.346,16.241-4.377,17.58-12.715
	L217.669,283.427z"/>
<path style="fill:#BA6746;" d="M118.42,235.764c-0.597,0-1.199-0.034-1.807-0.105l-53.44-6.269c-3.411-0.4-6.589-1.933-9.026-4.355
	L9.857,181.027c-6.011-5.971-6.042-15.685-0.069-21.696c5.971-6.011,15.685-6.042,21.696-0.069l40.529,40.271l48.175,5.652
	c8.415,0.988,14.437,8.61,13.45,17.025C132.721,230.017,126.093,235.764,118.42,235.764z"/>
<path style="fill:#BE1E14;" d="M61.953,189.536l-30.469-30.275c-6.011-5.972-15.724-5.94-21.696,0.069
	c-5.972,6.011-5.941,15.724,0.069,21.696l30.671,30.475L61.953,189.536z"/>
<polygon style="fill:#FFFFFF;" points="218.843,276.117 217.669,283.427 247.963,288.293 249.194,280.634 "/>
<path style="fill:#703014;" d="M275.516,311.324h-42.35v69.659h42.35c4.492,0,8.134-3.642,8.134-8.133v-53.391
	C283.65,314.966,280.009,311.324,275.516,311.324z"/>
<g>
</g>
<g>
</g>
<g>
</g>
<g>
</g>
<g>
</g>
<g>
</g>
<g>
</g>
<g>
</g>
<g>
</g>
<g>
</g>
<g>
</g>
<g>
</g>
<g>
</g>
<g>
</g>
<g>
</g>
</svg>
