<svg id="Layer_1" enable-background="new 0 0 512 512" viewBox="0 0 512 512" xmlns="http://www.w3.org/2000/svg"><g><g><g><path  fill="#0A0571" d="m512 341.333c0-8.917-6.635-15.147-16.128-15.147-5.355 0-14.528 2.752-22.421 7.296-10.453-22.016-27.52-41.536-39.723-47.616-8.085-4.032-35.627-8.533-60.395-8.533s-52.309 4.501-60.416 8.533c-12.181 6.08-29.248 25.6-39.701 47.616-7.915-4.544-17.088-7.296-22.421-7.296-4.053 0-7.552 1.067-10.325 3.157-3.733 2.795-5.803 7.061-5.803 11.989 0 16.64 12.907 28.181 14.4 29.44 1.195 1.024 2.56 1.643 3.968 2.048-1.344 3.84-2.539 7.744-3.499 11.627 31.253 1.622 70.464 8.257 70.464 31.553 0 5.888-4.779 10.667-10.667 10.667s-10.667-4.779-10.667-10.667c-3.2-4.203-26.987-8.981-52.757-10.304-.32 3.605-.576 7.211-.576 10.304 0 15.936 1.472 43.115 10.667 57.003v17.664c0 11.968 9.365 21.333 21.333 21.333h21.333c11.968 0 21.333-9.365 21.333-21.333v-7.232c12.885 3.221 32.981 7.232 53.333 7.232s40.448-4.011 53.333-7.232v7.232c0 11.968 9.365 21.333 21.333 21.333h21.333c11.968 0 21.333-9.365 21.333-21.333v-17.664c9.195-13.888 10.667-41.067 10.667-57.003 0-3.115-.256-6.699-.576-10.304-25.792 1.344-49.6 6.272-53.035 11.371 0 5.888-4.651 10.155-10.517 10.155-5.888 0-10.539-5.312-10.539-11.2 0-23.296 39.211-29.931 70.464-31.552-.96-3.904-2.176-7.787-3.499-11.627 1.408-.405 2.773-1.024 3.968-2.048 1.496-1.28 14.403-12.822 14.403-29.462zm-117.333 85.334h-42.667c-5.888 0-10.667-4.779-10.667-10.667s4.779-10.667 10.667-10.667h42.667c5.888 0 10.667 4.779 10.667 10.667-.001 5.888-4.779 10.667-10.667 10.667zm56.597-70.294c-.043 0-.085 0-.107.021-4.288.469-8.725.917-13.184 1.387-.555.064-1.088.107-1.643.171-4.565.469-9.173.917-13.717 1.344-1.173.107-2.304.213-3.456.32-3.349.32-6.656.619-9.899.896-1.472.128-2.88.235-4.309.363-2.859.235-5.611.448-8.299.661-1.408.107-2.795.213-4.139.299-2.603.171-5.013.32-7.36.448-1.109.064-2.304.128-3.328.171-3.179.128-6.101.213-8.491.213-2.389 0-5.312-.085-8.491-.235-1.045-.043-2.219-.128-3.328-.171-2.347-.128-4.757-.256-7.36-.448-1.344-.085-2.709-.192-4.117-.299-2.688-.192-5.44-.405-8.32-.661-1.429-.128-2.837-.235-4.309-.363-3.221-.277-6.549-.576-9.899-.896-1.152-.107-2.283-.213-3.456-.32-4.544-.427-9.152-.896-13.717-1.344-.555-.064-1.088-.107-1.621-.171-7.381-.747-14.507-1.515-21.312-2.261.064-.171.107-.299.171-.469 7.083-23.787 26.624-45.952 34.859-50.069 3.968-1.813 26.731-6.293 50.901-6.293s46.933 4.48 50.88 6.293c8.277 4.117 27.819 26.283 34.901 50.091.064.171.107.299.171.469-2.666.277-5.248.576-8.021.853z"/><path fill="#0A0571" d="m458.667 0h-405.334c-29.418 0-53.333 23.915-53.333 53.333v10.667h512v-10.667c0-29.418-23.915-53.333-53.333-53.333z"/><path fill="#0A0571" d="m0 330.667c0 29.418 23.915 53.333 53.333 53.333h158.251c5.888 0 10.667-4.779 10.667-10.667 0-2.816-1.088-5.376-2.859-7.275-4.075-8.128-6.059-16.235-6.059-24.725h-160c-5.888 0-10.667-4.779-10.667-10.667 0-26.752 18.133-49.963 44.053-56.448l32.021-7.979 1.557-6.272c-7.808-8.96-13.376-20.203-15.765-31.851-6.507-2.837-10.923-8.597-11.797-15.552l-2.304-18.56c-.725-5.632 1.024-11.349 4.821-15.637 1.28-1.429 2.709-2.667 4.288-3.669-.597-5.504-1.237-12.096-1.237-15.616 0-17.856 5.163-41.515 49.067-43.051 14.891-9.365 30.229-9.365 37.035-9.365 23.104 0 34.603 10.219 40.192 18.752 11.776 17.984 4.331 30.485-1.173 36.309l-1.941 1.963-.555 11.328c1.429.96 2.752 2.112 3.904 3.435 3.733 4.245 5.461 9.941 4.757 15.552l-2.304 18.517c-.832 6.72-4.992 12.331-10.688 15.275-2.432 12.16-8.341 23.872-16.64 33.045l1.344 5.376 32.021 7.979c15.083 3.776 27.371 13.291 35.136 25.771 11.136-15.531 23.829-27.627 34.965-33.195 13.505-6.741 46.166-10.773 69.91-10.773s56.384 4.011 69.888 10.773c11.435 5.717 24.469 18.219 35.797 34.304 2.304 3.243 6.272 4.928 10.197 4.416 3.712-.469 5.483-.875 11.029-.299 3.029.299 5.973-.661 8.256-2.688 2.219-2.005 3.499-4.885 3.499-7.893v-209.28h-511.999zm416-202.667h42.667c5.888 0 10.667 4.779 10.667 10.667s-4.779 10.667-10.667 10.667h-42.667c-5.888 0-10.667-4.779-10.667-10.667s4.779-10.667 10.667-10.667zm-106.667 0h64c5.888 0 10.667 4.779 10.667 10.667s-4.779 10.667-10.667 10.667h-64c-5.888 0-10.667-4.779-10.667-10.667s4.779-10.667 10.667-10.667zm0 64h149.333c5.888 0 10.667 4.779 10.667 10.667s-4.779 10.667-10.667 10.667h-149.333c-5.888 0-10.667-4.779-10.667-10.667s4.779-10.667 10.667-10.667z"/></g></g></g><g/><g/><g/><g/><g/><g/><g/><g/><g/><g/><g/><g/><g/><g/><g/></svg>