<svg id="Capa_1" enable-background="new 0 0 512 512" height="512" viewBox="0 0 512 512" width="512" xmlns="http://www.w3.org/2000/svg"><path d="m256 0c-141.61 0-256 114.42-256 256 0 141.61 114.43 256 256 256 141.61 0 256-114.43 256-256 0-141.61-114.42-256-256-256z" fill="#ff8859"/><path d="m512 256c0 141.57-114.39 256-256 256v-512c141.58 0 256 114.39 256 256z" fill="#ff415b"/><circle cx="256" cy="256" fill="#f5faff" r="226"/><path d="m482 256c0 125.09-100.86 226-226 226v-452c125.09 0 226 100.86 226 226z" fill="#dfe9ee"/><path d="m241 121h30v105h-30z" fill="#596c76"/><path d="m256 121h15v105h-15z" fill="#465a61"/><path d="m286 241h75v30h-75z" fill="#465a61"/><path d="m256 211c-24.81 0-45 20.19-45 45s20.19 45 45 45 45-20.19 45-45-20.19-45-45-45z" fill="#ff8859"/><path d="m301 256c0 24.81-20.19 45-45 45v-90c24.81 0 45 20.19 45 45z" fill="#ff415b"/><path d="m241 61h30v30h-30z" fill="#596c76"/><path d="m256 61h15v30h-15z" fill="#465a61"/><path d="m241 421h30v30h-30z" fill="#596c76"/><path d="m256 421h15v30h-15z" fill="#465a61"/><path d="m113.721 113.721h30v30h-30z" fill="#596c76" transform="matrix(.707 -.707 .707 .707 -53.318 128.719)"/><path d="m368.28 368.279h30v30h-30z" fill="#465a61" transform="matrix(.707 -.707 .707 .707 -158.759 383.276)"/><path d="m113.721 368.279h30v30h-30z" fill="#596c76" transform="matrix(.707 -.707 .707 .707 -233.318 203.279)"/><path d="m368.279 113.721h30v30h-30z" fill="#465a61" transform="matrix(.707 -.707 .707 .707 21.24 308.719)"/><path d="m61 241h30v30h-30z" fill="#596c76"/><path d="m421 241h30v30h-30z" fill="#465a61"/></svg>