<?xml version="1.0" encoding="iso-8859-1"?>
<!-- Generator: Adobe Illustrator 19.0.0, SVG Export Plug-In . SVG Version: 6.00 Build 0)  -->
<svg version="1.1" id="Layer_1" xmlns="http://www.w3.org/2000/svg" xmlns:xlink="http://www.w3.org/1999/xlink" x="0px" y="0px"
	 viewBox="0 0 512 512" style="enable-background:new 0 0 512 512;" xml:space="preserve">
<path style="fill:#249ED9;" d="M455.311,299.264l-33.808-32.294c-18.511-17.681-43.124-27.548-68.722-27.548h-62.339
	c-38.51,0-76.321,10.27-109.539,29.752l-74.379,43.623l-30.48,1.354c-29.569,1.314-55.129,21.054-63.874,49.332L0.714,400.521
	c-3.136,10.141,4.444,20.419,15.058,20.419H512V368.08C512,333.814,487.473,305.508,455.311,299.264z"/>
<path style="fill:#99EEFF;" d="M421.503,266.97c-18.511-17.681-43.124-27.548-68.722-27.548h-62.339
	c-38.51,0-76.321,10.27-109.539,29.752l-74.379,43.623l348.788-13.533L421.503,266.97z"/>
<g>
	<path style="fill:#464655;" d="M319.084,338.268h-30.417c-4.466,0-8.088-3.621-8.088-8.087s3.621-8.088,8.088-8.088h30.417
		c4.466,0,8.088,3.621,8.088,8.088S323.551,338.268,319.084,338.268z"/>
	<circle style="fill:#464655;" cx="96.004" cy="408.002" r="45.473"/>
</g>
<path style="opacity:0.1;enable-background:new    ;" d="M66.705,408.001c0-22.352,16.132-40.924,37.385-44.741
	c-2.626-0.472-5.326-0.731-8.088-0.731c-25.114,0-45.472,20.359-45.472,45.472s20.359,45.472,45.472,45.472
	c2.762,0,5.462-0.26,8.088-0.731C82.837,448.925,66.705,430.353,66.705,408.001z"/>
<circle style="fill:#464655;" cx="441.966" cy="408.002" r="45.473"/>
<path style="opacity:0.1;enable-background:new    ;" d="M412.668,408.001c0-22.352,16.132-40.924,37.385-44.741
	c-2.626-0.472-5.326-0.731-8.088-0.731c-25.114,0-45.472,20.359-45.472,45.472s20.359,45.472,45.472,45.472
	c2.762,0,5.462-0.26,8.088-0.731C428.799,448.925,412.668,430.353,412.668,408.001z"/>
<g>
	<circle style="fill:#AAB1C6;" cx="96.004" cy="408.002" r="17.866"/>
	<circle style="fill:#AAB1C6;" cx="441.966" cy="408.002" r="17.866"/>
</g>
<path style="fill:#FF9140;" d="M475.853,306.762c-1.686,3.997-2.619,8.391-2.619,13.001v9.292c0,18.487,14.987,33.473,33.473,33.473
	l0,0c1.712,0,3.396-0.13,5.039-0.379C509.741,338.207,495.725,317.793,475.853,306.762z"/>
<path style="fill:#FFB64D;" d="M12.17,363.483l-1.16,3.75c2.687,0.696,5.505,1.066,8.41,1.066l0,0
	c18.487,0,33.473-14.987,33.473-33.473v-9.292c0-2.091-0.202-4.134-0.568-6.12C33.424,327.249,18.454,343.161,12.17,363.483z"/>
<circle style="fill:#00CC79;" cx="254.282" cy="129.285" r="70.76"/>
<path style="fill:#FFFFFF;" d="M226.573,170.84c-0.556,0-1.117-0.057-1.674-0.175c-2.676-0.566-4.885-2.447-5.87-4.998
	l-11.518-29.815c-1.61-4.167,0.464-8.849,4.629-10.459c4.163-1.61,8.849,0.463,10.459,4.629l7.04,18.225l58.142-58.141
	c3.158-3.158,8.279-3.158,11.437,0c3.158,3.158,3.158,8.279,0,11.437l-66.927,66.927C230.759,170.005,228.695,170.84,226.573,170.84
	z"/>
<path style="opacity:0.1;enable-background:new    ;" d="M33.162,419.294l13.023-42.107c9.942-32.146,122.951-66.82,122.951-66.82
	l68.871-40.393c26.172-15.35,54.854-25.664,84.57-30.554h-32.132c-38.51,0-76.321,10.27-109.539,29.752l-74.379,43.623l-30.48,1.354
	c-29.569,1.314-55.129,21.055-63.874,49.332l-11.456,37.04c-3.136,10.141,4.444,20.419,15.058,20.419h16.971
	C32.859,420.392,32.992,419.843,33.162,419.294z"/>
<g>
</g>
<g>
</g>
<g>
</g>
<g>
</g>
<g>
</g>
<g>
</g>
<g>
</g>
<g>
</g>
<g>
</g>
<g>
</g>
<g>
</g>
<g>
</g>
<g>
</g>
<g>
</g>
<g>
</g>
</svg>
